<?xml version="1.0" encoding="utf-8"?>
<!-- Generator: Adobe Illustrator 16.0.3, SVG Export Plug-In . SVG Version: 6.00 Build 0)  -->
<!DOCTYPE svg PUBLIC "-//W3C//DTD SVG 1.1//EN" "http://www.w3.org/Graphics/SVG/1.1/DTD/svg11.dtd">
<svg version="1.1" id="Слой_1" xmlns="http://www.w3.org/2000/svg" xmlns:xlink="http://www.w3.org/1999/xlink" x="0px" y="0px"
	 viewBox="0 246.609 595.281 595.282" enable-background="new 0 246.609 595.281 595.282"
	 xml:space="preserve">
<g>
	<path d="M297.641,249.659c39.771,0,78.35,7.789,114.665,23.149c35.08,14.837,66.584,36.079,93.642,63.134
		c27.055,27.055,48.297,58.561,63.133,93.64c15.361,36.316,23.148,74.896,23.148,114.666c0,39.771-7.787,78.35-23.148,114.667
		c-14.836,35.078-36.078,66.583-63.133,93.639c-27.055,27.058-58.562,48.298-93.642,63.135
		c-36.313,15.36-74.895,23.148-114.666,23.148c-39.77,0-78.349-7.788-114.666-23.148c-35.079-14.837-66.584-36.078-93.64-63.135
		c-27.056-27.055-48.296-58.56-63.134-93.639C10.839,622.598,3.05,584.02,3.05,544.248c0-39.771,7.789-78.35,23.149-114.666
		c14.837-35.079,36.079-66.585,63.134-93.64c27.055-27.055,58.561-48.297,93.64-63.134
		C219.29,257.448,257.87,249.659,297.641,249.659 M297.641,246.609c-164.382,0-297.642,133.259-297.642,297.642
		s133.259,297.641,297.642,297.641c164.383,0,297.641-133.258,297.641-297.641S462.023,246.609,297.641,246.609L297.641,246.609z"/>
</g>
<line fill="none" stroke="#000000" stroke-width="3" stroke-miterlimit="10" x1="541.656" y1="685.139" x2="501.781" y2="662.118"/>
<line fill="none" stroke="#000000" stroke-width="3" stroke-miterlimit="10" x1="93.489" y1="426.388" x2="53.624" y2="403.367"/>
<line fill="none" stroke="#000000" stroke-width="3" stroke-miterlimit="10" x1="439.029" y1="299.348" x2="415.499" y2="340.098"/>
<line fill="none" stroke="#000000" stroke-width="3" stroke-miterlimit="10" x1="179.769" y1="748.389" x2="156.241" y2="789.15"/>
<line fill="none" stroke="#000000" stroke-width="3" stroke-miterlimit="10" x1="541.656" y1="403.367" x2="501.781" y2="426.388"/>
<line fill="none" stroke="#000000" stroke-width="3" stroke-miterlimit="10" x1="93.499" y1="662.109" x2="53.624" y2="685.128"/>
<line fill="none" stroke="#000000" stroke-width="3" stroke-miterlimit="10" x1="179.769" y1="340.108" x2="156.241" y2="299.348"/>
<line fill="none" stroke="#000000" stroke-width="3" stroke-miterlimit="10" x1="439.029" y1="789.15" x2="415.499" y2="748.4"/>
<line fill="none" stroke="#000000" stroke-width="3" stroke-miterlimit="10" x1="579.404" y1="544.253" x2="533.324" y2="544.253"/>
<line fill="none" stroke="#000000" stroke-width="3" stroke-miterlimit="10" x1="61.955" y1="544.253" x2="15.865" y2="544.253"/>
<line fill="none" stroke="#000000" stroke-width="3" stroke-miterlimit="10" x1="297.634" y1="308.564" x2="297.634" y2="261.467"/>
<line fill="none" stroke="#000000" stroke-width="3" stroke-miterlimit="10" x1="297.634" y1="827.04" x2="297.634" y2="779.934"/>
</svg>
