<?xml version="1.0" encoding="utf-8"?>
<!-- Generator: Adobe Illustrator 16.0.3, SVG Export Plug-In . SVG Version: 6.00 Build 0)  -->
<!DOCTYPE svg PUBLIC "-//W3C//DTD SVG 1.1//EN" "http://www.w3.org/Graphics/SVG/1.1/DTD/svg11.dtd">
<svg version="1.1" id="Слой_1" xmlns="http://www.w3.org/2000/svg" xmlns:xlink="http://www.w3.org/1999/xlink" x="0px" y="0px"
	 viewBox="0 369.914 595.281 595.283" enable-background="new 0 369.914 595.281 595.283"
	 xml:space="preserve">
<g>
	<path d="M297.641,372.964c39.771,0,78.351,7.789,114.665,23.149c35.08,14.837,66.584,36.079,93.643,63.134
		c27.055,27.055,48.297,58.562,63.133,93.64c15.361,36.316,23.148,74.896,23.148,114.666c0,39.771-7.787,78.351-23.148,114.668
		c-14.836,35.077-36.078,66.582-63.133,93.639c-27.057,27.058-58.563,48.298-93.643,63.135
		c-36.313,15.36-74.895,23.148-114.666,23.148c-39.77,0-78.349-7.788-114.666-23.148c-35.079-14.837-66.584-36.078-93.64-63.135
		C62.278,848.804,41.038,817.299,26.2,782.22C10.839,745.903,3.05,707.325,3.05,667.552c0-39.771,7.789-78.35,23.149-114.666
		c14.837-35.078,36.079-66.585,63.134-93.64s58.561-48.297,93.64-63.134C219.29,380.753,257.87,372.964,297.641,372.964
		 M297.641,369.914c-164.382,0-297.642,133.259-297.642,297.643c0,164.383,133.259,297.641,297.642,297.641
		c164.384,0,297.642-133.258,297.642-297.641C595.283,503.173,462.023,369.914,297.641,369.914L297.641,369.914z"/>
</g>
<line fill="none" stroke="#000000" stroke-width="3" stroke-miterlimit="10" x1="541.656" y1="808.444" x2="501.781" y2="785.423"/>
<line fill="none" stroke="#000000" stroke-width="3" stroke-miterlimit="10" x1="93.489" y1="549.693" x2="53.624" y2="526.672"/>
<line fill="none" stroke="#000000" stroke-width="3" stroke-miterlimit="10" x1="439.029" y1="422.653" x2="415.5" y2="463.403"/>
<line fill="none" stroke="#000000" stroke-width="3" stroke-miterlimit="10" x1="179.769" y1="871.694" x2="156.241" y2="912.455"/>
<line fill="none" stroke="#000000" stroke-width="3" stroke-miterlimit="10" x1="541.656" y1="526.672" x2="501.781" y2="549.693"/>
<line fill="none" stroke="#000000" stroke-width="3" stroke-miterlimit="10" x1="93.499" y1="785.414" x2="53.624" y2="808.433"/>
<line fill="none" stroke="#000000" stroke-width="3" stroke-miterlimit="10" x1="179.769" y1="463.413" x2="156.241" y2="422.653"/>
<line fill="none" stroke="#000000" stroke-width="3" stroke-miterlimit="10" x1="439.029" y1="912.455" x2="415.5" y2="871.705"/>
<line fill="none" stroke="#000000" stroke-width="3" stroke-miterlimit="10" x1="579.404" y1="667.558" x2="533.324" y2="667.558"/>
<line fill="none" stroke="#000000" stroke-width="3" stroke-miterlimit="10" x1="61.955" y1="667.558" x2="15.865" y2="667.558"/>
<line fill="none" stroke="#000000" stroke-width="3" stroke-miterlimit="10" x1="297.634" y1="431.869" x2="297.634" y2="384.772"/>
<line fill="none" stroke="#000000" stroke-width="3" stroke-miterlimit="10" x1="297.634" y1="950.345" x2="297.634" y2="903.239"/>
<circle fill="#393A3A" cx="297.64" cy="667.555" r="10"/>
</svg>
